<svg width="512" height="512" viewBox="0 0 512 512" fill="none" xmlns="http://www.w3.org/2000/svg">
  <!-- Simplified square version of JKO logo optimized for small icon sizes -->
  <!-- Background for better visibility -->
  <rect width="512" height="512" fill="#FFFFFF" rx="64"/>

  <!-- Optimized "JKO" lettermark centered and sized for icon clarity -->
  <g transform="translate(64, 100) scale(0.42)">
    <!-- "ko" path -->
    <path
      d="M228.907 51.3337L230.316 446H316.321C316.321 372.588 316.321 313.268 358.878 306.913C411.305 299.853 629.411 489.538 791.463 446C1051.1 357.308 928.491 -13.4926 687.834 55.5698C624.111 78.2609 571.765 154.652 562.351 219.5L622.978 236.444C641.307 135.108 722.009 67.2538 811.906 123.348C923.923 193.244 885.222 379.634 761.149 390.93C637.077 402.226 517.233 282.666 410.785 251.844L569.401 51.3337H464.362L321.961 223.603V51.3337H228.907Z"
      fill="#444748"
    />
    <!-- "J" path -->
    <path
      d="M80.8652 0.5V313.974C79.885 336.281 76.2359 346.621 62.1838 361.277C41.5444 377.516 28.8551 374.692 0.5 365.513V446C92.7132 465.459 163.089 405.861 169.69 313.974V0.5H80.8652Z"
      fill="#444748"
    />
  </g>
</svg>
